<svg id="Layer_1" data-name="Layer 1" xmlns="http://www.w3.org/2000/svg" viewBox="0 0 396 292"><defs><style>.cls-1{fill:#e0e0e0;}.cls-2{fill:red;}</style></defs><title>PolicyGrams components</title><path class="cls-1" d="M257,30.57A128.56,128.56,0,0,1,206.18,0l-28,20.54L0,151.31c97,118.48,248.51,167,396.26,126.75L324.47,60.59,316.09,35.2A128.64,128.64,0,0,1,257,30.57Z"/><path class="cls-2" d="M225.87,213.8c-16.91-.61-32.88-1-48.82-1.82-13.44-.7-19.48-6-21.33-19.35-2.84-20.56-3.34-41.23.82-61.68,2.21-10.85,8.19-15.16,19.3-15.84a806,806,0,0,1,98.3,0c12.28.76,19.09,6.09,20.15,18.43,1.4,16.13,1.3,32.41,1.37,48.62a58.83,58.83,0,0,1-2.3,15.57c-2.48,9.14-8.57,13.81-18,14.22C258.55,212.69,241.74,213.22,225.87,213.8ZM211,183l37.41-19.53L211,144Z"/></svg>