<svg id="Layer_1" data-name="Layer 1" xmlns="http://www.w3.org/2000/svg" viewBox="0 0 325 336"><defs><style>.cls-1{fill:#e0e0e0;}</style></defs><title>PolicyGrams components</title><path class="cls-1" d="M67.79,337.32l257.09-1.19C316.06,183.27,222,55,78.8.68L.32,246.06A129.2,129.2,0,0,1,67.79,337.32Z"/><path d="M149,214.74l-5.16-12.19c-4.7-11.11-9.43-22.22-14.09-33.34a14.06,14.06,0,0,1,15.39-19.75A13.29,13.29,0,0,1,156,161.25a20.6,20.6,0,0,1,0,5.32c-2,14.23-4,28.46-6,42.69-.26,1.83-.51,3.66-.77,5.49Z"/><path d="M165.71,165.39c-2-1.43-4.15-.55-6-1a13.6,13.6,0,0,1,8.64-14.18c5.79-2.16,11-1.14,15.31,3.38s5.12,9.85,2.73,15.58c-5.76,13.81-11.6,27.59-17.4,41.38a34.78,34.78,0,0,1-2.09,4.37c-.22-1.43-.45-2.85-.66-4.29q-2.76-18.51-5.48-37a11.85,11.85,0,0,1,.05-3.31,5,5,0,0,1,3-3.88C164.37,166.17,164.93,165.82,165.71,165.39Z"/><path d="M148.57,219.61l-9.92-6.79q-14.2-9.72-28.41-19.44c-3.25-2.21-5.87-4.86-7-8.74a14.21,14.21,0,0,1,7.94-16.89,13.34,13.34,0,0,1,17.26,5.62c1.93,3.45,3.38,7.18,5,10.81q7.47,17,14.87,34c.19.43.35.87.52,1.31Z"/><path d="M167.2,220c.16-.49.23-.76.34-1q9.12-21.24,18.24-42.47a15.78,15.78,0,0,1,6.27-7.62c7.7-4.65,18.27-.1,20.4,8.82,1.42,6-.48,10.93-5.23,14.62-3.83,3-7.95,5.61-11.95,8.37l-27.06,18.67C168,219.5,167.67,219.66,167.2,220Z"/><path d="M151,225c-.61,0-1,.06-1.31.06q-21.39,0-42.79,0c-7.48,0-13.36-4.56-14.66-11.49-1.11-5.89.66-10.87,5.5-14.46s10.12-3.45,15.2-.58c3.32,1.87,6.36,4.23,9.5,6.42q13.76,9.6,27.48,19.23C150.17,224.4,150.45,224.62,151,225Z"/><path d="M165.34,224.77c.44-.35.68-.55.94-.74q17.78-12.4,35.56-24.8a13.79,13.79,0,0,1,21.71,8.36c1.9,8.32-4,17.35-13.55,17.27-14.45-.12-28.91,0-43.36,0C166.28,224.83,165.93,224.8,165.34,224.77Z"/><path d="M172.77,245.74c-.35,1.3-.71,2.61-1.05,3.91-1.29,4.89-2.59,9.76-3.85,14.65-.18.72-.42,1.05-1.24,1-2.34-.07-4.68,0-7,0-.53,0-.87-.06-1-.7q-3.88-15-7.81-30a3.09,3.09,0,0,1-.05-.57h6.36c2,0,1.95,0,2.43,1.9q2.12,8.37,4.24,16.74a10.45,10.45,0,0,0,.35,1c.17-.55.28-.85.36-1.16,1.53-5.82,3.09-11.63,4.58-17.45a1.2,1.2,0,0,1,1.44-1.09c1.78.06,3.57.07,5.35,0,.9,0,1.2.31,1.41,1.12,1.49,5.79,3,11.57,4.55,17.35.08.32.18.64.33,1.17a6.47,6.47,0,0,0,.35-.82c1.5-5.9,3-11.8,4.46-17.71.21-.83.54-1.14,1.42-1.11,2.29.06,4.58,0,7,0-.49,1.92-.93,3.68-1.39,5.43-2.16,8.22-4.34,16.44-6.45,24.68-.24.91-.6,1.17-1.51,1.14q-3.34-.1-6.69,0c-.88,0-1.19-.29-1.41-1.12-1.49-5.79-3-11.56-4.56-17.34-.09-.38-.21-.75-.32-1.12Z"/><path d="M92,234.08c2.56,0,5,0,7.51,0,.37,0,.8.48,1.05.84q5.43,7.62,10.8,15.28a1.82,1.82,0,0,0,.74.67V234.16h7.68V265.3c-2.11,0-4.22,0-6.32,0-.33,0-.7-.49-.94-.83q-6-8.18-12-16.37c-.22-.29-.44-.58-.86-1.11v18.28H92Z"/><path d="M223.12,244.64h-7.51c-1.19-3.79-3.71-5.25-7.64-4.35a4.41,4.41,0,0,0-1.61.71,2.06,2.06,0,0,0,.5,3.75c1.72.53,3.55.73,5.32,1.14a38.12,38.12,0,0,1,6.32,1.66,9.08,9.08,0,0,1,3.58,13.91,9.55,9.55,0,0,1-3.51,2.8,18.69,18.69,0,0,1-16.95-.61c-3.57-1.91-5.17-5.16-5.27-9.39H204a.6.6,0,0,1,.09.23,5.17,5.17,0,0,0,5,4.58,15.15,15.15,0,0,0,4.5-.27,2.34,2.34,0,0,0,2-2.42c0-1-.71-1.72-2.18-2-3-.63-6.08-1-9.07-1.79-3.76-.93-6.5-3.08-7.18-7.16-.8-4.85,1.41-9,6-10.71a18,18,0,0,1,14.31.39A9.65,9.65,0,0,1,223.12,244.64Z"/><path d="M124.67,265.21v-31h24V241H133v5.09h12.16v4.28c0,2.63,0,2.63-2.6,2.63H133v5.37h16.15v6.87Z"/></svg>