<svg id="Layer_1" data-name="Layer 1" xmlns="http://www.w3.org/2000/svg" xmlns:xlink="http://www.w3.org/1999/xlink" viewBox="0 0 1920 1080"><defs><style>.cls-1{fill:url(#linear-gradient);}.cls-2,.cls-3,.cls-8{fill:#fff;}.cls-3{font-size:125px;font-family:Montserrat-Bold, Montserrat;font-weight:700;}.cls-4{letter-spacing:-0.01em;}.cls-5{letter-spacing:-0.01em;}.cls-6{letter-spacing:0em;}.cls-7{letter-spacing:-0.01em;}.cls-8{font-size:36px;font-family:ProximaNova-Regular, Proxima Nova;}</style><linearGradient id="linear-gradient" x1="1262.59" y1="-1226.47" x2="2342.59" y2="-1226.47" gradientTransform="translate(2187.06 2342.12) rotate(-90)" gradientUnits="userSpaceOnUse"><stop offset="0" stop-color="#ed4666"/><stop offset="1" stop-color="blue"/></linearGradient></defs><title>PolicyGrams components</title><rect class="cls-1" x="0.59" y="-0.47" width="1920" height="1080" transform="translate(1921.18 1079.06) rotate(180)"/><polygon points="695.62 276.62 693.87 274.21 693.87 274.21 695.62 276.62"/><path class="cls-2" d="M601.38,270.38l22.53-73.33c-48-12-96.66,4.68-127.21,43.62l62.64,44A48.25,48.25,0,0,1,601.38,270.38Z"/><path class="cls-2" d="M548,303.88a47.73,47.73,0,0,1,3.15-7.76l-62.58-43.94c-26.25,42-25.42,93.38,2.17,134.46l60.9-45.76A48,48,0,0,1,548,303.88Z"/><polygon points="496.7 240.67 496.7 240.67 559.34 284.65 559.34 284.65 496.7 240.67"/><path class="cls-2" d="M580,364.1a47.89,47.89,0,0,1-19.87-11.93L556.35,355,499.24,397.9c31.79,37.93,81,53,128.55,39.48l-24-70-.67-2A47.88,47.88,0,0,1,580,364.1Z"/><polygon class="cls-2" points="499.24 397.89 499.24 397.9 556.35 354.98 499.24 397.89"/><polygon points="490.78 386.64 490.79 386.65 551.68 340.88 551.68 340.88 490.78 386.64"/><polygon points="560.09 352.17 556.35 354.98 560.09 352.17 560.09 352.17"/><polygon points="551.68 340.88 551.68 340.88 552.21 340.49 551.68 340.88"/><text class="cls-3" transform="translate(633.32 355.25)"><tspan class="cls-4">P</tspan><tspan x="90.13" y="0">oli</tspan><tspan class="cls-5" x="247.25" y="0">c</tspan><tspan class="cls-6" x="320.12" y="0">y</tspan><tspan x="394.37" y="0">G</tspan><tspan class="cls-7" x="490.75" y="0">r</tspan><tspan x="543.75" y="0">ams</tspan></text><text class="cls-8" transform="translate(736.8 500.1)">A glance at policies &amp; issues</text></svg>