<svg id="Layer_1" data-name="Layer 1" xmlns="http://www.w3.org/2000/svg" viewBox="0 0 323 337"><defs><style>.cls-1{fill:#e0e0e0;}</style></defs><title>PolicyGrams components</title><path class="cls-1" d="M323.2.15,66.42,1.33A130.65,130.65,0,0,1,61.87,20.4,128.65,128.65,0,0,1,0,94.78l14.06,42.61L80.22,337.85C222.87,282.22,315.79,153.09,323.2.15Z"/><path d="M232.57,80.28h9.82c.06,1,.16,1.92.16,2.82q0,31.31,0,62.62c0,6.55-2.64,11.7-8.78,14.42-5.89,2.62-11.43,1.33-16.13-2.87a28.4,28.4,0,0,1-5.27-6.48c-5-8.25-9.73-16.63-14.57-24.95a5.78,5.78,0,0,0-2-2.24c0,1,0,1.93,0,2.89,0,6.83,0,13.66-.13,20.49-.14,6.32-3.19,11-9,13.34s-11.32,1-15.85-3.16a32.71,32.71,0,0,1-5.66-7.24c-4.78-7.92-9.34-16-14-24-.5-.86-1.06-1.7-1.94-3.11-.1,1.41-.2,2.19-.2,3,0,6.55.06,13.1,0,19.65-.14,9.9-6,15.64-15.87,15.67q-12.92,0-25.83,0C86.75,161,68.89,144.88,67.28,125c-1.78-22,12.36-41,33.45-44.16,6.38-.94,13-.15,19.76-.15v9.14c-.91.07-1.89.19-2.88.2-4.12.07-8.24-.08-12.35.18A30.44,30.44,0,0,0,76.93,120.6c0,16,12.4,29.55,28.28,30.37,9.06.47,18.16.26,27.23.17,4.32,0,6.61-2.73,6.62-7.36,0-15.44,0-30.89,0-46.33a7.18,7.18,0,0,1,.08-2.23c.24-.71.73-1.65,1.32-1.86a2.77,2.77,0,0,1,2.24.6,9.75,9.75,0,0,1,1.75,2.5q14.35,24.75,28.7,49.5a24.45,24.45,0,0,0,2.31,3.51c1.7,2,3.86,3,6.5,2a5.56,5.56,0,0,0,3.86-5.6c0-1.12,0-2.25,0-3.37,0-15.07,0-30.14.08-45.2,0-1.38.95-2.74,1.45-4.11,1.18.88,2.79,1.51,3.48,2.68,9.85,16.77,19.57,33.61,29.33,50.44a23.81,23.81,0,0,0,1.79,2.84c1.71,2.14,3.92,3.28,6.67,2.37s4-3,3.91-5.82c0-.85,0-1.69,0-2.53V80.28Z"/><path d="M120.56,93.67v10c-4.32,0-8.5,0-12.68,0-9.32.07-16.13,6.26-17.13,15.53S97,137.07,106.2,137.48c5.14.23,10.3.09,15.44.08,3.23,0,3.9-.69,3.91-4q0-19.25,0-38.48c0-6,2.52-10.67,7.84-13.59,5.78-3.17,13.09-1.77,18.18,3.56A33.1,33.1,0,0,1,156,91.13c4.92,8.28,9.72,16.63,14.57,25,.35.6.77,1.17,1.65,2.5v-6.31c0-5.8-.06-11.61,0-17.41.11-6.49,3-11.42,9.09-13.9S193,80,197.66,84.43a29.37,29.37,0,0,1,4.81,6.16c4.86,8.1,9.54,16.31,14.29,24.47a8,8,0,0,0,2.17,2.67V80.37h9.94c0,1,.15,2,.15,3v60.38a7.18,7.18,0,0,1-.09,2.23c-.25.73-.75,1.76-1.32,1.9a3.15,3.15,0,0,1-2.46-.7,10.79,10.79,0,0,1-1.87-2.77q-14.37-24.75-28.73-49.5A19.12,19.12,0,0,0,192,91.23a5.39,5.39,0,0,0-5.91-1.5,5.47,5.47,0,0,0-3.82,4.76,24.33,24.33,0,0,0-.13,3.08c0,15.82,0,31.64-.07,47.46,0,1-.9,2-1.38,3a20.24,20.24,0,0,1-3-1.65,6.19,6.19,0,0,1-1.18-1.89q-5.84-10.06-11.67-20.15Q156.1,109.17,147.26,94a12.11,12.11,0,0,0-2.58-3.26,5.58,5.58,0,0,0-9.14,3.33,17.75,17.75,0,0,0-.16,3.35q0,22.61,0,45.21c0,4.33-.58,4.93-4.78,4.93-7.58,0-15.16,0-22.74,0a27.13,27.13,0,0,1-26.93-22.51A26.8,26.8,0,0,1,98.86,95.23a39.09,39.09,0,0,1,9.92-1.5C112.59,93.48,116.42,93.67,120.56,93.67Z"/></svg>