<svg id="Layer_1" data-name="Layer 1" xmlns="http://www.w3.org/2000/svg" viewBox="0 0 323 338"><defs><style>.cls-1{fill:#e0e0e0;}</style></defs><title>PolicyGrams components</title><path class="cls-1" d="M323.2.15,66.42,1.33A130.65,130.65,0,0,1,61.87,20.4,128.65,128.65,0,0,1,0,94.78l14.06,42.61L80.22,337.85C222.87,282.22,315.79,153.09,323.2.15Z"/><path d="M142.79,144.67c0,11.06-7.84,18.83-18.95,18.83-11,0-18.87-7.95-18.81-19,0-10.6,7.5-18.76,18.89-18.77S142.85,133.81,142.79,144.67Zm-9.7.65a42.37,42.37,0,0,0-1.16-5.39c-1.24-3.42-3.63-5.69-7.39-6a7.69,7.69,0,0,0-7.65,4,12.72,12.72,0,0,0-.18,13.07,8,8,0,0,0,14,.57C132,149.63,132.43,147.14,133.09,145.32Z"/><path d="M148.71,162.6v-36a8.08,8.08,0,0,1,.95-.1c4.68,0,9.36-.12,14,0,7.72.23,13.47,3.71,16.34,11,3.64,9.29.09,21.08-11.29,24.52a14.7,14.7,0,0,1-4,.61c-5.06.07-10.12,0-15.18,0A7.49,7.49,0,0,1,148.71,162.6Zm9.59-18.13c0,3.05,0,6.09,0,9.13,0,.45.36,1.28.55,1.28,2.9,0,5.9.68,8.54-1.17,3.07-2.15,4-5.37,4-8.82.06-3.68-.82-7.12-4.12-9.41-2.38-1.64-5.09-1.2-7.73-1.3-1,0-1.33.34-1.31,1.33C158.33,138.49,158.31,141.48,158.3,144.47Z"/><path d="M81.41,80v2.15c0,6.8,0,13.6,0,20.41a6.33,6.33,0,0,0,9.74,5.37c2.38-1.44,2.9-3.83,2.92-6.36,0-6.58,0-13.17,0-19.76,0-1.4.35-1.93,1.82-1.87,2.6.1,5.2,0,8,0v1.9c0,6.86,0,13.72,0,20.58,0,4.29-1.3,8.14-4.7,11a15,15,0,0,1-9.31,3.39c-4.62.23-9.15,0-13.07-2.89a12.11,12.11,0,0,1-5.11-9.59c-.22-7.67-.14-15.35-.13-23,0-.46.47-1.29.74-1.3C75.29,79.93,78.26,80,81.41,80Z"/><path d="M178.31,116.25c-3.07,0-6.15,0-9.23,0-.32,0-.75-.55-.9-.93-.55-1.42-1-2.86-1.47-4.3-.32-1-.76-1.63-2-1.6-3.59.1-7.18.08-10.77,0a1.71,1.71,0,0,0-1.93,1.5,36.42,36.42,0,0,1-1.49,4.3,1.76,1.76,0,0,1-1.18,1c-2.87.09-5.75,0-8.88,0,1.05-2.94,2-5.68,3-8.41q4.83-13.2,9.65-26.41a1.9,1.9,0,0,1,2.09-1.55c2.93.11,5.88,0,8.81.09a2.19,2.19,0,0,1,1.65,1.1q6.44,17.3,12.73,34.64A2.47,2.47,0,0,1,178.31,116.25ZM159.63,90.11l-.59.08-4,11.87h8.6Z"/><path d="M220.6,162.68c-3.09,0-6.08,0-9.06-.05-.37,0-.9-.54-1.07-.95a38.38,38.38,0,0,1-1.5-4.3,1.65,1.65,0,0,0-1.83-1.43c-3.65,0-7.3.05-10.94,0a1.71,1.71,0,0,0-1.89,1.38c-.47,1.5-1,3-1.54,4.45-.15.37-.62.86-1,.86-2.92.07-5.84,0-9,0,1-2.8,1.89-5.34,2.82-7.87,3.2-8.76,6.45-17.5,9.6-26.28.53-1.48,1.16-2.19,2.86-2.08,2.66.16,5.33.07,8,0a1.73,1.73,0,0,1,2,1.35c4.11,11.37,8.31,22.71,12.47,34.06A4.17,4.17,0,0,1,220.6,162.68Zm-23.24-14.19h8.56c-1.38-4.11-2.68-8-4-11.93l-.47-.05Z"/><path d="M108.34,111.1l4.66-5.88,3.06,1.94a14.45,14.45,0,0,0,9.42,1.87,3,3,0,0,0,3-2.36,2.62,2.62,0,0,0-1.9-3.06c-2.59-1-5.26-1.69-7.9-2.52-3.22-1-6.21-2.42-7.86-5.59-3.13-6-.06-13.12,6.72-15.26,7.13-2.24,13.73-.81,19.76,3.5,1,.73,1.31,1.38.33,2.46-1.38,1.51-2.6,3.17-3.59,4.4-3-1.23-5.59-2.49-8.34-3.37a7.27,7.27,0,0,0-4,.15,3.71,3.71,0,0,0-2,2,2.23,2.23,0,0,0,1.27,2.88c1.81.82,3.76,1.36,5.61,2.1,2.61,1,5.48,1.73,7.73,3.29,6.2,4.3,5.25,13.65-1.58,17.32-5,2.69-10.28,2.42-15.55,1.09A19.35,19.35,0,0,1,108.34,111.1Z"/><path d="M235.2,140.79c1.72-3.7,3.51-6.95,4.75-10.39,1.12-3.13,2.81-4.46,6.17-4a49.9,49.9,0,0,0,6.85.06c-1.11,2.07-2.06,3.91-3.07,5.73-3.05,5.5-6.13,11-9.16,16.5a4.74,4.74,0,0,0-.5,2.17c-.05,3.85,0,7.71,0,11.69H230.07v-3.79a23,23,0,0,1,0-3.11c.58-4.31-.86-8-3.06-11.64-3.23-5.34-6.12-10.87-9.16-16.33-.15-.28-.25-.59-.48-1.11.92,0,1.69-.1,2.47-.1,2.45,0,4.91-.08,7.35,0a2.35,2.35,0,0,1,1.67,1.09c1.88,3.79,3.64,7.64,5.44,11.47C234.52,139.53,234.76,140,235.2,140.79Z"/><path d="M102.87,126.74v7.65H95.21c-3.55,0-3-.08-3,3,0,7.73,0,15.46,0,23.19v2H82.42v-2c0-8.11,0-16.22,0-24.33,0-1.42-.4-1.95-1.84-1.9-2.5.09-5,0-7.52,0-1.22,0-1.63-.41-1.57-1.61.08-1.69,0-3.38.07-5.06,0-.44.66-1.19,1-1.2,10,0,19.92,0,29.88,0C102.58,126.56,102.67,126.64,102.87,126.74Z"/></svg>