<svg id="Layer_1" data-name="Layer 1" xmlns="http://www.w3.org/2000/svg" viewBox="0 0 600 200"><defs><style>.cls-1{fill:#fff;}</style></defs><title>PolicyGrams components</title><polygon points="142.92 75.48 141.88 74.05 141.88 74.05 142.92 75.48"/><path class="cls-1" d="M86.74,71.77,100.17,28a72.77,72.77,0,0,0-75.84,26L61.68,80.27A28.75,28.75,0,0,1,86.74,71.77Z"/><path class="cls-1" d="M54.94,91.73a28.47,28.47,0,0,1,1.88-4.62L19.51,60.91a72.77,72.77,0,0,0,1.3,80.17l36.3-27.29A28.67,28.67,0,0,1,54.94,91.73Z"/><path class="cls-1" d="M74,127.64a28.64,28.64,0,0,1-11.85-7.12L59.9,122.2l-34,25.58a72.76,72.76,0,0,0,76.64,23.55L88.18,129.58l-.41-1.18A28.63,28.63,0,0,1,74,127.64Z"/><polygon class="cls-1" points="25.85 147.78 25.85 147.78 59.9 122.2 25.85 147.78"/><polygon points="57.11 113.79 57.11 113.79 57.43 113.56 57.11 113.79"/><path class="cls-1" d="M157.2,89.13c0,11.62-8.72,18.85-22.65,18.85H124v14.38H112V70.2h22.58C148.48,70.2,157.2,77.43,157.2,89.13Zm-12.22,0c0-5.74-3.72-9.1-11.1-9.1H124V98.14h9.84C141.26,98.14,145,94.79,145,89.13Z"/><path class="cls-1" d="M161.9,102.32c0-12.08,9.31-20.65,22.06-20.65s22,8.57,22,20.65S196.7,123,184,123,161.9,114.39,161.9,102.32Zm32.27,0c0-6.93-4.4-11.11-10.21-11.11s-10.29,4.18-10.29,11.11,4.47,11.1,10.29,11.1S194.17,109.25,194.17,102.32Z"/><path class="cls-1" d="M213.69,67.07h11.63v55.29H213.69Z"/><path class="cls-1" d="M234.71,70.2c0-3.65,2.9-6.49,7.22-6.49s7.23,2.69,7.23,6.26c0,3.88-2.9,6.71-7.23,6.71S234.71,73.85,234.71,70.2Zm1.41,12.07h11.63v40.09H236.12Z"/><path class="cls-1" d="M255.57,102.32c0-12.08,9.32-20.65,22.36-20.65,8.42,0,15.05,3.66,18,10.21l-9,4.85a10,10,0,0,0-9-5.52c-5.88,0-10.5,4.1-10.5,11.11s4.62,11.1,10.5,11.1a9.86,9.86,0,0,0,9-5.51l9,4.91c-2.91,6.41-9.54,10.14-18,10.14C264.89,123,255.57,114.39,255.57,102.32Z"/><path class="cls-1" d="M341.79,82.27l-18.11,42.55c-3.87,9.69-9.39,12.6-16.61,12.6-4.1,0-8.57-1.35-11.18-3.66l4.25-8.27a10.25,10.25,0,0,0,6.55,2.54c3.21,0,5-1.42,6.56-5l.15-.37L296,82.27h12l11.26,27.2,11.32-27.2Z"/><path class="cls-1" d="M382.33,95.46h11v21.16c-5.74,4.33-13.64,6.64-21.09,6.64-16.39,0-28.47-11.26-28.47-27s12.08-27,28.7-27c9.16,0,16.76,3.13,21.83,9l-7.75,7.15a17.66,17.66,0,0,0-13.49-5.88C363,79.59,356,86.37,356,96.28S363,113,372.94,113a19.14,19.14,0,0,0,9.39-2.23Z"/><path class="cls-1" d="M428.61,81.67V92.4c-1-.07-1.71-.14-2.61-.14-6.41,0-10.65,3.5-10.65,11.17v18.93H403.72V82.27h11.1v5.29C417.66,83.69,422.42,81.67,428.61,81.67Z"/><path class="cls-1" d="M470.79,99.48v22.88H459.91v-5c-2.16,3.65-6.33,5.59-12.22,5.59-9.39,0-15-5.22-15-12.15,0-7.08,5-12,17.21-12h9.25c0-5-3-7.9-9.25-7.9a19.3,19.3,0,0,0-11.55,3.73l-4.17-8.12c4.4-3.13,10.88-4.85,17.29-4.85C463.71,81.67,470.79,87.34,470.79,99.48Zm-11.62,10.21V105.6h-8c-5.44,0-7.15,2-7.15,4.69,0,2.91,2.46,4.84,6.56,4.84C454.47,115.13,457.82,113.35,459.17,109.69Z"/><path class="cls-1" d="M549,99.41v23H537.41V101.2c0-6.49-2.9-9.47-7.6-9.47-5.22,0-8.87,3.36-8.87,10.51v20.12H509.32V101.2c0-6.49-2.76-9.47-7.6-9.47-5.15,0-8.8,3.36-8.8,10.51v20.12H481.3V82.27h11.1v4.62c3-3.43,7.45-5.22,12.6-5.22,5.58,0,10.35,2.16,13.19,6.56a18,18,0,0,1,14.45-6.56C542.18,81.67,549,87.19,549,99.41Z"/><path class="cls-1" d="M555.6,118.64l3.87-8.35a27.46,27.46,0,0,0,13.94,3.88c5.36,0,7.37-1.42,7.37-3.66,0-6.55-24.22.15-24.22-15.87,0-7.6,6.86-13,18.56-13,5.51,0,11.63,1.27,15.43,3.51l-3.88,8.27a23,23,0,0,0-11.55-3c-5.22,0-7.45,1.64-7.45,3.72,0,6.86,24.22.23,24.22,16C591.89,117.67,585,123,573,123,566.18,123,559.32,121.1,555.6,118.64Z"/></svg>