<svg id="Layer_1" data-name="Layer 1" xmlns="http://www.w3.org/2000/svg" viewBox="0 0 324 337"><defs><style>.cls-1{fill:#e0e0e0;}.cls-2{fill:#29abe2;}</style></defs><title>PolicyGrams components</title><path class="cls-1" d="M323.2.15,66.42,1.33A130.65,130.65,0,0,1,61.87,20.4,128.65,128.65,0,0,1,0,94.78l14.06,42.61L80.22,337.85C222.87,282.22,315.79,153.09,323.2.15Z"/><path class="cls-2" d="M103.73,155.84c13,1.17,24.49-2,34.88-9.82-10.86-.94-18.13-6.36-22.18-16.56a26.11,26.11,0,0,0,10.63-.5,23.92,23.92,0,0,1-13.65-8.44,23.32,23.32,0,0,1-5.23-15.16,24.66,24.66,0,0,0,10.64,2.89A23.91,23.91,0,0,1,109,93.78a23.53,23.53,0,0,1,2.59-17.2c12.88,15.13,29.14,23.46,49,24.84-.15-1.56-.34-3-.42-4.39-.91-15,12.93-27.18,27.72-24.52a23.35,23.35,0,0,1,12.61,6.43,1.76,1.76,0,0,0,1.89.48,48.51,48.51,0,0,0,12.75-4.85c.33-.18.67-.34,1.17-.6a18.82,18.82,0,0,1-3.85,7.27c-1.76,2-3.8,3.81-5.82,5.79,2.13-.46,4.3-.82,6.41-1.4s4.14-1.36,6.45-2.15a34.29,34.29,0,0,1-2.72,3.59c-2.68,2.7-5.45,5.32-8.24,7.9a2.06,2.06,0,0,0-.77,1.73c.17,20.44-7,37.88-21.71,52.09a62,62,0,0,1-33,16.55,69,69,0,0,1-36.47-3.06,66.24,66.24,0,0,1-12.28-6Z"/></svg>