<svg id="Layer_1" data-name="Layer 1" xmlns="http://www.w3.org/2000/svg" xmlns:xlink="http://www.w3.org/1999/xlink" viewBox="0 0 450 1080"><defs><style>.cls-1{fill:url(#linear-gradient);}.cls-2,.cls-3{fill:#fff;}.cls-3{font-size:47.86px;font-family:Montserrat-Bold, Montserrat;font-weight:700;}.cls-4{letter-spacing:-0.01em;}.cls-5{letter-spacing:-0.01em;}.cls-6{letter-spacing:0em;}.cls-7{letter-spacing:-0.01em;}</style><linearGradient id="linear-gradient" x1="-707.5" y1="-2463" x2="372.5" y2="-2463" gradientTransform="translate(2688.5 374.5) rotate(-90)" gradientUnits="userSpaceOnUse"><stop offset="0" stop-color="#ed4666"/><stop offset="1" stop-color="blue"/></linearGradient></defs><title>PolicyGrams components</title><rect class="cls-1" x="0.5" y="2" width="450" height="1080" transform="translate(451 1084) rotate(180)"/><polygon points="124.04 115.56 123.37 114.64 123.37 114.64 124.04 115.56"/><path class="cls-2" d="M88,113.18,96.58,85.1a46.72,46.72,0,0,0-48.71,16.7l24,16.84A18.46,18.46,0,0,1,88,113.18Z"/><path class="cls-2" d="M67.53,126a19.41,19.41,0,0,1,1.2-3l-24-16.82a46.73,46.73,0,0,0,.83,51.48l23.32-17.52A18.39,18.39,0,0,1,67.53,126Z"/><polygon points="47.87 101.8 47.87 101.8 71.86 118.64 71.86 118.64 47.87 101.8"/><path class="cls-2" d="M79.75,149.06a18.33,18.33,0,0,1-7.61-4.57l-1.43,1.08L48.84,162a46.73,46.73,0,0,0,49.23,15.12l-9.2-26.81-.26-.76A18.24,18.24,0,0,1,79.75,149.06Z"/><polygon class="cls-2" points="48.84 162 48.84 162 70.71 145.57 48.84 162"/><polygon points="45.6 157.69 45.6 157.7 68.92 140.17 68.92 140.17 45.6 157.69"/><polygon points="72.14 144.49 70.71 145.57 72.14 144.49 72.14 144.49"/><polygon points="68.92 140.17 68.92 140.17 69.12 140.02 68.92 140.17"/><text class="cls-3" transform="translate(100.18 145.67)"><tspan class="cls-4">P</tspan><tspan x="34.51" y="0">oli</tspan><tspan class="cls-5" x="94.68" y="0">c</tspan><tspan class="cls-6" x="122.58" y="0">y</tspan><tspan x="151.01" y="0">G</tspan><tspan class="cls-7" x="187.92" y="0">r</tspan><tspan x="208.21" y="0">ams</tspan></text></svg>