<svg id="Layer_1" data-name="Layer 1" xmlns="http://www.w3.org/2000/svg" xmlns:xlink="http://www.w3.org/1999/xlink" viewBox="0 0 395 293"><defs><style>.cls-1{fill:none;}.cls-2{fill:#e0e0e0;}.cls-3{clip-path:url(#clip-path);}.cls-4{fill:#00274e;}</style><clipPath id="clip-path"><rect class="cls-1" x="155.5" y="74" width="150.67" height="120"/></clipPath></defs><title>PolicyGrams components</title><path class="cls-2" d="M316.16,258.09,394.64,12.71C246.53-26.13,95.46,23.72-.44,143.1L208.25,293.26A129.19,129.19,0,0,1,316.16,258.09Z"/><g class="cls-3"><path class="cls-4" d="M308.17,218h-154V72.67h154Zm-152-22.89H306.91c0-11.53,0-22.84,0-34.15,0-.59-.71-1.15-1-1.76-1.73-3.35-3.43-6.72-5.14-10.08l1-.46,5.05,10V73.78c-.36-.17-.55-.34-.74-.34q-35.65,0-71.32,0a2.61,2.61,0,0,0-1.93.78c-2.53,3.86-4.94,7.8-7.55,12,14.43,4.22,27.57,10.09,38.81,19.64a122.68,122.68,0,0,0-39.57-18.49c-2.67,4.26-5.39,8.2-7.67,12.37s-4.86,7.91-10.58,6.7c-.13,0-.33.26-.66.52a39.22,39.22,0,0,0,0,4.19,15.81,15.81,0,0,1-3,10.85c-5.49,8.19-10.74,16.57-15.82,25-2.12,3.51-4.22,6.41-8.87,5.67-.15,0-.33.24-.94.72,2.28,7.7-2.68,13.33-6.53,19.36-.54.84-1.06,1.69-1.6,2.54Zm150.55,3.76H155.21V217H306.77ZM155.13,190l.38.09,22-105.25-22,5.64a4.67,4.67,0,0,1,2.68-1.76c5.45-1.43,10.93-2.76,16.38-4.22,1.18-.32,3-.83,3.23-1.65a85.34,85.34,0,0,0,1.93-9.23H155.13ZM208.28,84.19c-4-.2-7.41-.25-10.8-.57-2.63-.25-3.82.64-4.72,3.24Q176,135.51,159,184.06c-.76,2.18-1.44,4.39-2.15,6.58l.52.18Zm-13.9-1.48H209l4.41-9.33c-5,0-9.44-.08-13.87.06a3.28,3.28,0,0,0-2.46,1.44C196,77.17,195.39,79.63,194.38,82.71Z"/><path class="cls-4" d="M251.54,147.41a20,20,0,0,1-20-20.36c.12-10.68,9.36-19.64,20.26-19.63,11.09,0,20.48,9.42,20.31,20.34A20.15,20.15,0,0,1,251.54,147.41Zm3.3-20.31c0-2.77.31-5.59-.13-8.28-.21-1.26-1.88-3.16-2.9-3.17-1.17,0-3.31,1.7-3.37,2.76a141.66,141.66,0,0,0,0,17.24c.06,1.09,2.17,2.61,3.54,2.86.74.14,2.53-1.9,2.73-3.13A53.14,53.14,0,0,0,254.84,127.1Z"/><path class="cls-4" d="M266,172.5c1.13-5.19,2.51-10.34,3.29-15.58.45-3,1.73-3.94,4.53-3.56a29.91,29.91,0,0,0,3.57,0,15.67,15.67,0,0,1-.16,2.35c-2.37,10.25-4.94,20.45-7.08,30.74-.94,4.53-4.13,2.74-6.63,3.13-2.67.42-3-1.33-3.37-3.34-.8-4.46-1.76-8.9-2.7-13.34a14.52,14.52,0,0,0-.92-2.21L252.75,189a2.79,2.79,0,0,1-.72.31c-7.88.45-7.91.45-9.68-7.05-2.22-9.47-4.38-18.95-6.55-28.34.44-.25.61-.45.8-.46,8.45-.48,8.46-.48,10.13,7.62a85.88,85.88,0,0,0,2.91,11.48l3.88-19h7.87c1.36,6.26,2.75,12.68,4.14,19.1Z"/><path class="cls-4" d="M187.58,170.52v18.74h-9V153.57c3.11,0,6.29-.15,9.45.1.8.06,1.68,1.28,2.22,2.15,2.95,4.77,5.8,9.6,9.23,15.31V153.75h9.07v35.7a74.52,74.52,0,0,1-7.64-.09c-.83-.09-1.76-1.15-2.28-2-3.48-5.64-6.85-11.35-10.26-17Z"/><path class="cls-4" d="M302.64,147.12c-4.3,0-7.92.12-11.53-.08a4,4,0,0,1-2.4-1.84c-1.6-2.37-3-4.86-4.55-7.44-.43.48-.75.67-.83.93-2.68,8.65-9.08,9.62-17.09,7.82,2.12-3.7,3.85-7.81,6.54-11.14,4.94-6.11,4.72-11.54-.21-17.47-2.37-2.85-3.92-6.39-6.22-10.26,4.35,0,8.16-.08,12,.08.64,0,1.37,1,1.83,1.67,1.27,1.91,2.42,3.9,3.61,5.86.27-.17.42-.21.44-.3,2.77-8.66,9.58-7.79,16.93-6.89-2.58,4.44-4.81,8.88-7.6,12.91-2.66,3.83-3,7,0,10.92C296.82,136.47,299.39,141.63,302.64,147.12Z"/><path class="cls-4" d="M206.91,107.71h24.42c.31,3.6.61,7,.94,10.8H218.66v4.84h10.62v11h-10.9v12.5H206.91Z"/><path class="cls-4" d="M302.85,161.56l-6.63,2.14c-2.72-1.32-4.52-2.51-6.49-3-.75-.17-1.89,1.34-2.86,2.08.76.82,1.36,2,2.29,2.39,2.35.94,4.9,1.36,7.28,2.25a11.14,11.14,0,0,1,3.75,18.63c-4.58,4.38-10.09,4.69-15.84,2.87-4.79-1.52-7.4-5-8.45-10.08a54.18,54.18,0,0,1,6.54-1.46,3.48,3.48,0,0,1,2.77,1.24,5.62,5.62,0,0,0,6.07,2.45,3.09,3.09,0,0,0,2.15-1.93,3.14,3.14,0,0,0-1.51-2.49,41.14,41.14,0,0,0-5.63-2c-7.15-2.39-9.66-5.74-8.93-12s4.79-9.71,11.85-10.29C296.07,151.88,300.32,154.62,302.85,161.56Z"/><path class="cls-4" d="M220.27,181.16h13.92v8.28H211.08V153.66H234V162H220.25v5.2h11.09v7.91H220.27Z"/></g></svg>