<svg id="Layer_1" data-name="Layer 1" xmlns="http://www.w3.org/2000/svg" xmlns:xlink="http://www.w3.org/1999/xlink" viewBox="0 0 1920 1080"><defs><style>.cls-1{fill:url(#linear-gradient);}.cls-2{fill:#fff;}</style><linearGradient id="linear-gradient" x1="1262.59" y1="-1226.47" x2="2342.59" y2="-1226.47" gradientTransform="translate(2187.06 2342.12) rotate(-90)" gradientUnits="userSpaceOnUse"><stop offset="0" stop-color="#ed4666"/><stop offset="1" stop-color="blue"/></linearGradient></defs><title>home page</title><rect class="cls-1" x="0.59" y="-0.47" width="1920" height="1080" transform="translate(1921.18 1079.06) rotate(180)"/><polygon points="695.62 276.62 693.87 274.21 693.87 274.21 695.62 276.62"/><path class="cls-2" d="M601.38,270.38l22.53-73.33c-48-12-96.66,4.68-127.21,43.62l62.64,44A48.25,48.25,0,0,1,601.38,270.38Z"/><path class="cls-2" d="M548,303.88a47.73,47.73,0,0,1,3.15-7.76l-62.58-43.94c-26.25,42-25.42,93.38,2.17,134.46l60.9-45.76A48,48,0,0,1,548,303.88Z"/><polygon points="496.7 240.67 496.7 240.67 559.34 284.65 559.34 284.65 496.7 240.67"/><path class="cls-2" d="M580,364.1a47.89,47.89,0,0,1-19.87-11.93L556.35,355,499.24,397.9c31.79,37.93,81,53,128.55,39.48l-24-70-.67-2A47.88,47.88,0,0,1,580,364.1Z"/><polygon class="cls-2" points="499.24 397.89 499.24 397.9 556.35 354.98 499.24 397.89"/><polygon points="490.78 386.64 490.79 386.65 551.68 340.88 551.68 340.88 490.78 386.64"/><polygon points="560.09 352.17 556.35 354.98 560.09 352.17 560.09 352.17"/><polygon points="551.68 340.88 551.68 340.88 552.21 340.49 551.68 340.88"/><path class="cls-2" d="M719.57,299.5c0,19.5-14.63,31.63-38,31.63H663.94v24.12H643.69v-87.5h37.88C704.94,267.75,719.57,279.88,719.57,299.5Zm-20.5,0c0-9.62-6.25-15.25-18.63-15.25h-16.5v30.38h16.5C692.82,314.63,699.07,309,699.07,299.5Z"/><path class="cls-2" d="M727.45,321.63c0-20.25,15.62-34.63,37-34.63s36.87,14.38,36.87,34.63-15.5,34.62-36.87,34.62S727.45,341.88,727.45,321.63Zm54.12,0c0-11.63-7.37-18.63-17.12-18.63s-17.25,7-17.25,18.63,7.5,18.62,17.25,18.62S781.57,333.25,781.57,321.63Z"/><path class="cls-2" d="M814.32,262.5h19.5v92.75h-19.5Z"/><path class="cls-2" d="M849.57,267.75c0-6.12,4.88-10.87,12.13-10.87s12.12,4.5,12.12,10.5c0,6.5-4.87,11.25-12.12,11.25S849.57,273.88,849.57,267.75ZM852,288h19.5v67.25H852Z"/><path class="cls-2" d="M884.57,321.63c0-20.25,15.62-34.63,37.5-34.63,14.12,0,25.25,6.13,30.12,17.13l-15.12,8.12c-3.63-6.37-9-9.25-15.13-9.25-9.87,0-17.62,6.88-17.62,18.63s7.75,18.62,17.62,18.62c6.13,0,11.5-2.75,15.13-9.25l15.12,8.25c-4.87,10.75-16,17-30.12,17C900.19,356.25,884.57,341.88,884.57,321.63Z"/><path class="cls-2" d="M1029.19,288l-30.37,71.38c-6.5,16.25-15.75,21.12-27.88,21.12-6.87,0-14.37-2.25-18.75-6.12l7.13-13.88a17.25,17.25,0,0,0,11,4.25c5.37,0,8.37-2.37,11-8.37l.25-.63L952.44,288h20.13l18.87,45.63,19-45.63Z"/><path class="cls-2" d="M1097.19,310.13h18.5v35.5c-9.62,7.25-22.87,11.12-35.37,11.12-27.5,0-47.75-18.87-47.75-45.25s20.25-45.25,48.12-45.25c15.38,0,28.13,5.25,36.63,15.13l-13,12a29.63,29.63,0,0,0-22.63-9.88c-17,0-28.62,11.38-28.62,28,0,16.38,11.62,28,28.37,28a32.13,32.13,0,0,0,15.75-3.75Z"/><path class="cls-2" d="M1174.82,287v18c-1.63-.12-2.88-.25-4.38-.25-10.75,0-17.87,5.88-17.87,18.75v31.75h-19.5V288h18.62v8.88C1156.44,290.38,1164.44,287,1174.82,287Z"/><path class="cls-2" d="M1245.57,316.88v38.37h-18.25v-8.37c-3.63,6.12-10.63,9.37-20.5,9.37-15.75,0-25.13-8.75-25.13-20.37,0-11.88,8.38-20.13,28.88-20.13h15.5c0-8.37-5-13.25-15.5-13.25-7.13,0-14.5,2.38-19.38,6.25l-7-13.62c7.38-5.25,18.25-8.13,29-8.13C1233.69,287,1245.57,296.5,1245.57,316.88ZM1226.07,334v-6.87h-13.38c-9.12,0-12,3.37-12,7.87,0,4.88,4.13,8.13,11,8.13C1218.19,343.13,1223.82,340.13,1226.07,334Z"/><path class="cls-2" d="M1376.82,316.75v38.5h-19.5v-35.5c0-10.87-4.88-15.87-12.75-15.87-8.75,0-14.88,5.62-14.88,17.62v33.75h-19.5v-35.5c0-10.87-4.62-15.87-12.75-15.87-8.62,0-14.75,5.62-14.75,17.62v33.75h-19.5V288h18.63v7.75c5-5.75,12.5-8.75,21.12-8.75,9.38,0,17.38,3.63,22.13,11,5.37-6.87,14.12-11,24.25-11C1365.32,287,1376.82,296.25,1376.82,316.75Z"/><path class="cls-2" d="M1387.82,349l6.5-14c6,3.88,15.12,6.5,23.37,6.5,9,0,12.38-2.37,12.38-6.12,0-11-40.63.25-40.63-26.63,0-12.75,11.5-21.75,31.13-21.75,9.25,0,19.5,2.13,25.87,5.88l-6.5,13.87a38.6,38.6,0,0,0-19.37-5c-8.75,0-12.5,2.75-12.5,6.25,0,11.5,40.62.38,40.62,26.88,0,12.5-11.62,21.37-31.75,21.37C1405.57,356.25,1394.07,353.13,1387.82,349Z"/><path class="cls-2" d="M760.16,500.1h-3.42l-2.12-5.37h-12l-2.13,5.37h-3.42l9.69-24h3.71Zm-6.4-8-5.12-13-5.07,13Z"/><path class="cls-2" d="M779.5,507.15a11.74,11.74,0,0,1-3.89-.57,8.66,8.66,0,0,1-3.13-2.06l1.36-1.94a7,7,0,0,0,5.66,2.34,6.35,6.35,0,0,0,4-1.24,4.54,4.54,0,0,0,1.62-3.84v-2.62a7.68,7.68,0,0,1-2.55,2.25,6.88,6.88,0,0,1-3.32.84,7.09,7.09,0,0,1-5.59-2.43,11.14,11.14,0,0,1,0-13.16,7.37,7.37,0,0,1,11.46.62v-2.63h2.7v17.13c0,2.55-.78,4.4-2.36,5.57A9.74,9.74,0,0,1,779.5,507.15Zm.43-9.25a6.44,6.44,0,0,0,5.18-2.81v-7.63a6.1,6.1,0,0,0-2.19-2,6,6,0,0,0-3-.81,5.05,5.05,0,0,0-4.11,1.83,7.34,7.34,0,0,0-1.51,4.79,7.25,7.25,0,0,0,1.51,4.75A5,5,0,0,0,779.93,497.9Z"/><path class="cls-2" d="M795.91,500.1h-2.7v-24h2.7Z"/><path class="cls-2" d="M814.88,500.1h-2.7v-2a7.29,7.29,0,0,1-5.76,2.41,6.37,6.37,0,0,1-4.21-1.55,5.23,5.23,0,0,1-1.83-4.21,5.15,5.15,0,0,1,1.8-4.25,6.48,6.48,0,0,1,4.24-1.48,7.32,7.32,0,0,1,5.76,2.34v-3.13a3.22,3.22,0,0,0-1.22-2.66,4.93,4.93,0,0,0-3.17-1,6.94,6.94,0,0,0-5.33,2.41l-1.26-1.87a9.26,9.26,0,0,1,6.95-2.88,7.76,7.76,0,0,1,4.86,1.44,5.21,5.21,0,0,1,1.87,4.42Zm-7.45-1.52a5.44,5.44,0,0,0,4.75-2.16v-3.31a5.55,5.55,0,0,0-4.75-2.12,4.51,4.51,0,0,0-3.11,1.06,3.7,3.7,0,0,0,0,5.47A4.51,4.51,0,0,0,807.43,498.58Z"/><path class="cls-2" d="M834.76,500.1h-2.67V488.72a4.06,4.06,0,0,0-1-3.11,4.13,4.13,0,0,0-2.91-.92,5.85,5.85,0,0,0-2.92.79,7,7,0,0,0-2.23,1.91V500.1h-2.7V482.71H823v2.52a8.31,8.31,0,0,1,2.7-2.09,7.6,7.6,0,0,1,3.53-.86q5.5,0,5.51,5.61Z"/><path class="cls-2" d="M847.86,500.53a8.15,8.15,0,0,1-6.27-2.61,10,10,0,0,1,0-13.05,8.17,8.17,0,0,1,6.27-2.59,7.6,7.6,0,0,1,6.37,3l-1.8,1.62a5.18,5.18,0,0,0-4.43-2.23,5.49,5.49,0,0,0-4.35,1.89,7,7,0,0,0-1.66,4.8,7.07,7.07,0,0,0,1.66,4.85,5.49,5.49,0,0,0,4.35,1.89,5.28,5.28,0,0,0,4.43-2.27l1.8,1.65A7.61,7.61,0,0,1,847.86,500.53Z"/><path class="cls-2" d="M865.93,500.53a8.59,8.59,0,0,1-6.41-2.54,9.89,9.89,0,0,1,0-13.07,8,8,0,0,1,6.12-2.64,7.61,7.61,0,0,1,6.1,2.64A10,10,0,0,1,874,491.6v.68h-14a6.64,6.64,0,0,0,1.85,4.29,5.84,5.84,0,0,0,4.38,1.73,7.2,7.2,0,0,0,5.4-2.24l1.29,1.77A9.51,9.51,0,0,1,865.93,500.53Zm5.36-10.26a6.19,6.19,0,0,0-1.51-4,5.75,5.75,0,0,0-8.3,0,6.56,6.56,0,0,0-1.6,4Z"/><path class="cls-2" d="M901.21,500.1h-2.7v-2a7.32,7.32,0,0,1-5.76,2.41,6.35,6.35,0,0,1-4.21-1.55,5.83,5.83,0,0,1,0-8.46,6.53,6.53,0,0,1,4.25-1.48,7.32,7.32,0,0,1,5.76,2.34v-3.13a3.22,3.22,0,0,0-1.22-2.66,5,5,0,0,0-3.17-1,6.93,6.93,0,0,0-5.33,2.41l-1.26-1.87a9.24,9.24,0,0,1,7-2.88,7.76,7.76,0,0,1,4.86,1.44,5.24,5.24,0,0,1,1.87,4.42Zm-7.45-1.52a5.45,5.45,0,0,0,4.75-2.16v-3.31a5.56,5.56,0,0,0-4.75-2.12,4.56,4.56,0,0,0-3.12,1.06,3.72,3.72,0,0,0,0,5.47A4.56,4.56,0,0,0,893.76,498.58Z"/><path class="cls-2" d="M911.07,500.53q-3.89,0-3.88-4.07V485.08h-2.88v-2.37h2.88V478h2.73v4.75h3.53v2.37h-3.53v10.8a2.64,2.64,0,0,0,.45,1.62,1.5,1.5,0,0,0,1.28.62,2.38,2.38,0,0,0,1.84-.76l.79,2.05A4.47,4.47,0,0,1,911.07,500.53Z"/><path class="cls-2" d="M935.12,500.53a7.06,7.06,0,0,1-5.87-3.06v9.25h-2.7v-24h2.7v2.59a7.36,7.36,0,0,1,2.52-2.2,7,7,0,0,1,3.35-.82,7.08,7.08,0,0,1,5.6,2.46,11.4,11.4,0,0,1,0,13.3A7,7,0,0,1,935.12,500.53Zm-.68-2.41a4.92,4.92,0,0,0,4.06-1.89,7.52,7.52,0,0,0,1.52-4.85,7.44,7.44,0,0,0-1.52-4.82,4.93,4.93,0,0,0-4.06-1.87,6.1,6.1,0,0,0-3,.81,5.82,5.82,0,0,0-2.18,2v7.85a5.74,5.74,0,0,0,2.18,2A6.1,6.1,0,0,0,934.44,498.12Z"/><path class="cls-2" d="M961,497.9a8.74,8.74,0,0,1-12.5,0,10.18,10.18,0,0,1,0-13,8.79,8.79,0,0,1,12.5,0,10.18,10.18,0,0,1,0,13Zm-10.46-1.75a5.48,5.48,0,0,0,8.42,0,8.08,8.08,0,0,0,0-9.52,5.54,5.54,0,0,0-8.42,0,8.08,8.08,0,0,0,0,9.52Z"/><path class="cls-2" d="M970.44,500.1h-2.7v-24h2.7Z"/><path class="cls-2" d="M978.48,479.7a1.73,1.73,0,0,1-1.28.52,1.78,1.78,0,0,1-1.29-.52,1.71,1.71,0,0,1-.54-1.28,1.84,1.84,0,0,1,1.83-1.83,1.71,1.71,0,0,1,1.28.54,1.78,1.78,0,0,1,.52,1.29A1.73,1.73,0,0,1,978.48,479.7Zm.06,20.4h-2.7V482.71h2.7Z"/><path class="cls-2" d="M991.6,500.53a8.14,8.14,0,0,1-6.26-2.61,10,10,0,0,1,0-13.05,8.16,8.16,0,0,1,6.26-2.59,7.64,7.64,0,0,1,6.38,3l-1.8,1.62a5.18,5.18,0,0,0-4.43-2.23,5.53,5.53,0,0,0-4.36,1.89,7,7,0,0,0-1.65,4.8,7.11,7.11,0,0,0,1.65,4.85,5.53,5.53,0,0,0,4.36,1.89,5.29,5.29,0,0,0,4.43-2.27l1.8,1.65A7.64,7.64,0,0,1,991.6,500.53Z"/><path class="cls-2" d="M1004.44,479.7a1.74,1.74,0,0,1-1.28.52,1.79,1.79,0,0,1-1.3-.52,1.71,1.71,0,0,1-.54-1.28,1.84,1.84,0,0,1,1.84-1.83,1.72,1.72,0,0,1,1.28.54,1.82,1.82,0,0,1,.52,1.29A1.77,1.77,0,0,1,1004.44,479.7Zm0,20.4h-2.7V482.71h2.7Z"/><path class="cls-2" d="M1017.77,500.53a8.56,8.56,0,0,1-6.4-2.54,9,9,0,0,1-2.49-6.61,9.19,9.19,0,0,1,2.45-6.46,8,8,0,0,1,6.12-2.64,7.59,7.59,0,0,1,6.1,2.64,10,10,0,0,1,2.25,6.68v.68h-14a6.6,6.6,0,0,0,1.86,4.29,5.81,5.81,0,0,0,4.37,1.73,7.2,7.2,0,0,0,5.4-2.24l1.3,1.77A9.53,9.53,0,0,1,1017.77,500.53Zm5.37-10.26a6.3,6.3,0,0,0-1.51-4,5.17,5.17,0,0,0-4.22-1.78,5.08,5.08,0,0,0-4.08,1.76,6.5,6.5,0,0,0-1.6,4Z"/><path class="cls-2" d="M1035.7,500.53a9.26,9.26,0,0,1-7-2.74l1.37-1.94a7.15,7.15,0,0,0,2.47,1.76,7.69,7.69,0,0,0,3.25.72,4.93,4.93,0,0,0,3-.83,2.57,2.57,0,0,0,1.09-2.16,2,2,0,0,0-1.11-1.81,8.94,8.94,0,0,0-2.7-1c-1.06-.23-2.11-.49-3.15-.79a6.16,6.16,0,0,1-2.68-1.55,3.86,3.86,0,0,1-1.12-2.9,4.46,4.46,0,0,1,1.73-3.56,7.13,7.13,0,0,1,4.71-1.44,8.58,8.58,0,0,1,6.45,2.52l-1.26,1.87a6.38,6.38,0,0,0-5.19-2.2,4.56,4.56,0,0,0-2.8.78,2.34,2.34,0,0,0-1,2,1.76,1.76,0,0,0,.79,1.44,5.29,5.29,0,0,0,2,.83c.81.16,1.67.38,2.59.64a26.32,26.32,0,0,1,2.6.89,4.45,4.45,0,0,1,2.79,4.26,4.68,4.68,0,0,1-1.79,3.78A7.61,7.61,0,0,1,1035.7,500.53Z"/><path class="cls-2" d="M1075.59,500.1h-3.74c-.48-.41-1.36-1.25-2.63-2.52a9.49,9.49,0,0,1-6.91,2.95,8.07,8.07,0,0,1-5.35-1.75,6.87,6.87,0,0,1-.7-9.12,13.88,13.88,0,0,1,3.89-3,11.12,11.12,0,0,1-1.84-5.4,5.09,5.09,0,0,1,1.75-4,6.13,6.13,0,0,1,4.3-1.59,5.89,5.89,0,0,1,3.89,1.26,4.29,4.29,0,0,1,1.51,3.46,5.56,5.56,0,0,1-.47,2.32,5.17,5.17,0,0,1-1.51,1.87,15.12,15.12,0,0,1-1.84,1.32c-.53.31-1.29.73-2.3,1.26.77,1,1.7,2.17,2.81,3.42q1.29,1.55,2.84,3.2a23.51,23.51,0,0,0,2.59-5.51l2.31,1.05a31.84,31.84,0,0,1-3.28,6.19Q1073.15,497.87,1075.59,500.1Zm-13-1.8a6.93,6.93,0,0,0,5-2.38q-2.38-2.49-3.31-3.64a41.11,41.11,0,0,1-3-3.81q-3.57,2.16-3.57,5.18a4.27,4.27,0,0,0,1.43,3.4A5,5,0,0,0,1062.59,498.3Zm-1.51-17a8.61,8.61,0,0,0,1.44,4.14,16.27,16.27,0,0,0,3.55-2.23,3.48,3.48,0,0,0,1.2-2.7,2.58,2.58,0,0,0-.79-2,2.93,2.93,0,0,0-2-.72,3.21,3.21,0,0,0-2.38,1A3.51,3.51,0,0,0,1061.08,481.34Z"/><path class="cls-2" d="M1091.3,479.7a1.73,1.73,0,0,1-1.28.52,1.78,1.78,0,0,1-1.29-.52,1.71,1.71,0,0,1-.54-1.28,1.84,1.84,0,0,1,1.83-1.83,1.71,1.71,0,0,1,1.28.54,1.79,1.79,0,0,1,.53,1.29A1.74,1.74,0,0,1,1091.3,479.7Zm.06,20.4h-2.7V482.71h2.7Z"/><path class="cls-2" d="M1102.3,500.53a9.26,9.26,0,0,1-7-2.74l1.37-1.94a7.2,7.2,0,0,0,2.46,1.76,7.74,7.74,0,0,0,3.26.72,4.88,4.88,0,0,0,3-.83,2.56,2.56,0,0,0,1.1-2.16,2,2,0,0,0-1.11-1.81,8.94,8.94,0,0,0-2.7-1c-1.06-.23-2.11-.49-3.15-.79a6.25,6.25,0,0,1-2.69-1.55,3.9,3.9,0,0,1-1.11-2.9,4.43,4.43,0,0,1,1.73-3.56,7.13,7.13,0,0,1,4.71-1.44,8.59,8.59,0,0,1,6.45,2.52l-1.26,1.87a6.39,6.39,0,0,0-5.19-2.2,4.61,4.61,0,0,0-2.81.78,2.35,2.35,0,0,0-1,2,1.73,1.73,0,0,0,.79,1.44,5.29,5.29,0,0,0,2,.83c.8.16,1.67.38,2.59.64a25.25,25.25,0,0,1,2.59.89,4.41,4.41,0,0,1,2.79,4.26,4.67,4.67,0,0,1-1.78,3.78A7.63,7.63,0,0,1,1102.3,500.53Z"/><path class="cls-2" d="M1119,500.53a9.26,9.26,0,0,1-7-2.74l1.37-1.94a7.2,7.2,0,0,0,2.46,1.76,7.74,7.74,0,0,0,3.26.72,4.88,4.88,0,0,0,3-.83,2.56,2.56,0,0,0,1.1-2.16,2,2,0,0,0-1.11-1.81,8.94,8.94,0,0,0-2.7-1c-1.06-.23-2.11-.49-3.15-.79a6.25,6.25,0,0,1-2.69-1.55,3.9,3.9,0,0,1-1.11-2.9,4.43,4.43,0,0,1,1.73-3.56,7.13,7.13,0,0,1,4.71-1.44,8.59,8.59,0,0,1,6.45,2.52l-1.26,1.87a6.39,6.39,0,0,0-5.19-2.2,4.61,4.61,0,0,0-2.81.78,2.35,2.35,0,0,0-1,2,1.73,1.73,0,0,0,.79,1.44,5.29,5.29,0,0,0,2,.83c.8.16,1.67.38,2.59.64a25.25,25.25,0,0,1,2.59.89,4.41,4.41,0,0,1,2.79,4.26,4.67,4.67,0,0,1-1.78,3.78A7.63,7.63,0,0,1,1119,500.53Z"/><path class="cls-2" d="M1144.67,500.1H1142v-2.45a8.93,8.93,0,0,1-2.72,2.05,7.61,7.61,0,0,1-3.47.83c-3.7,0-5.54-1.85-5.54-5.55V482.71h2.7v11.45a4,4,0,0,0,1,3.06,4.27,4.27,0,0,0,2.92.9,6.14,6.14,0,0,0,2.92-.76,6.32,6.32,0,0,0,2.19-1.87V482.71h2.7Z"/><path class="cls-2" d="M1158,500.53a8.57,8.57,0,0,1-6.41-2.54,9,9,0,0,1-2.49-6.61,9.19,9.19,0,0,1,2.45-6.46,8,8,0,0,1,6.12-2.64,7.59,7.59,0,0,1,6.1,2.64,10,10,0,0,1,2.25,6.68v.68h-14a6.6,6.6,0,0,0,1.86,4.29,5.81,5.81,0,0,0,4.37,1.73,7.2,7.2,0,0,0,5.4-2.24l1.3,1.77A9.51,9.51,0,0,1,1158,500.53Zm5.36-10.26a6.24,6.24,0,0,0-1.51-4,5.16,5.16,0,0,0-4.21-1.78,5.1,5.1,0,0,0-4.09,1.76,6.5,6.5,0,0,0-1.6,4Z"/><path class="cls-2" d="M1175.88,500.53a9.27,9.27,0,0,1-7-2.74l1.37-1.94a7.15,7.15,0,0,0,2.47,1.76,7.7,7.7,0,0,0,3.26.72,4.9,4.9,0,0,0,3-.83,2.58,2.58,0,0,0,1.1-2.16,2,2,0,0,0-1.12-1.81,8.74,8.74,0,0,0-2.7-1c-1.06-.23-2.11-.49-3.15-.79a6.21,6.21,0,0,1-2.68-1.55,3.86,3.86,0,0,1-1.12-2.9,4.46,4.46,0,0,1,1.73-3.56,7.14,7.14,0,0,1,4.72-1.44,8.57,8.57,0,0,1,6.44,2.52l-1.26,1.87a6.36,6.36,0,0,0-5.18-2.2,4.57,4.57,0,0,0-2.81.78,2.34,2.34,0,0,0-1,2,1.74,1.74,0,0,0,.8,1.44,5.18,5.18,0,0,0,2,.83c.81.16,1.67.38,2.6.64a27,27,0,0,1,2.59.89,4.41,4.41,0,0,1,2.79,4.26,4.7,4.7,0,0,1-1.78,3.78A7.66,7.66,0,0,1,1175.88,500.53Z"/></svg>