<svg id="Layer_1" data-name="Layer 1" xmlns="http://www.w3.org/2000/svg" viewBox="0 0 50 50"><title>PolicyGrams components</title><polygon points="16.44 18.52 13.32 18.52 13.32 40.04 28.93 40.04 28.93 37.7 28.93 34.58 28.93 18.52 19.56 18.52 16.44 18.52"/><path d="M47.38,3.48A9,9,0,0,0,40.76.73H9.51A9.07,9.07,0,0,0,2.88,3.48,9,9,0,0,0,.13,10.11V41.35A9,9,0,0,0,2.88,48a9.07,9.07,0,0,0,6.63,2.75H40.76a9.39,9.39,0,0,0,9.37-9.38V10.11A9,9,0,0,0,47.38,3.48ZM32.06,34.58V40a3.13,3.13,0,0,1-3.13,3.13H13.32A3.13,3.13,0,0,1,10.19,40V18.52a3.13,3.13,0,0,1,3.13-3.12H28.93a3.13,3.13,0,0,1,3.13,3.12ZM39.86,33a3.12,3.12,0,0,1-3.12,3.12H33.62V33h3.12V11.5H21.13v2.34H18V11.5a3.13,3.13,0,0,1,3.13-3.13H36.74a3.13,3.13,0,0,1,3.12,3.13Z"/></svg>