<svg id="Layer_1" data-name="Layer 1" xmlns="http://www.w3.org/2000/svg" viewBox="0 0 50 50"><title>PolicyGrams components</title><path d="M40.36-.23H9.11A9.38,9.38,0,0,0-.27,9.15V40.39a9.38,9.38,0,0,0,9.38,9.38H40.35a9.38,9.38,0,0,0,9.38-9.38V9.14A9.38,9.38,0,0,0,40.36-.23ZM37.2,19.18l0,.8c0,8.15-6.2,17.53-17.53,17.53a17.44,17.44,0,0,1-9.44-2.77,11.84,11.84,0,0,0,1.47.09,12.37,12.37,0,0,0,7.65-2.64,6.16,6.16,0,0,1-5.75-4.28,6.34,6.34,0,0,0,1.16.11,6.2,6.2,0,0,0,1.62-.21,6.17,6.17,0,0,1-4.94-6v-.08a6.12,6.12,0,0,0,2.79.77,6.17,6.17,0,0,1-1.91-8.22A17.5,17.5,0,0,0,25,20.68a6,6,0,0,1-.16-1.41,6.16,6.16,0,0,1,10.66-4.21,12.35,12.35,0,0,0,3.91-1.5A6.18,6.18,0,0,1,36.74,17a12.14,12.14,0,0,0,3.54-1A12.26,12.26,0,0,1,37.2,19.18Z"/></svg>